HIERARCHY
ROOT joint_Root
{
	OFFSET 0.0 0.0 0.0
	CHANNELS 6 Xposition Yposition Zposition Zrotation Xrotation Yrotation 
	JOINT Hips
	{
		OFFSET -0.726466 93.3139 -2.00062
		CHANNELS 6 Xposition Yposition Zposition Zrotation Xrotation Yrotation 
		JOINT Spine
		{
			OFFSET 15.7357 0.0 0.0
			CHANNELS 6 Xposition Yposition Zposition Zrotation Xrotation Yrotation 
			JOINT Chest
			{
				OFFSET 8.98455 -0.406207 0.0
				CHANNELS 6 Xposition Yposition Zposition Zrotation Xrotation Yrotation 
				JOINT Neck
				{
					OFFSET 16.3773 0.0 0.0
					CHANNELS 6 Xposition Yposition Zposition Zrotation Xrotation Yrotation 
					JOINT Head
					{
						OFFSET 6.45672 0.0 0.0
						CHANNELS 6 Xposition Yposition Zposition Zrotation Xrotation Yrotation 
						End Site
						{
							OFFSET 0.0 0.0 0.0
						}
					}
				}
				JOINT Shoulder_L
				{
					OFFSET 12.9942 -0.242716 4.98039
					CHANNELS 6 Xposition Yposition Zposition Zrotation Xrotation Yrotation 
					JOINT UpperArm_L
					{
						OFFSET 5.34809 0.0 0.0
						CHANNELS 6 Xposition Yposition Zposition Zrotation Xrotation Yrotation 
						JOINT LowerArm_L
						{
							OFFSET 24.3286 1.87007e-05 0.0
							CHANNELS 6 Xposition Yposition Zposition Zrotation Xrotation Yrotation 
							JOINT Hand_L
							{
								OFFSET 22.2916 0.0 0.0
								CHANNELS 6 Xposition Yposition Zposition Zrotation Xrotation Yrotation 
								End Site
								{
									OFFSET 0.0 0.0 0.0
								}
							}
						}
					}
				}
				JOINT Shoulder_R
				{
					OFFSET 12.9945 -0.242716 -4.98039
					CHANNELS 6 Xposition Yposition Zposition Zrotation Xrotation Yrotation 
					JOINT UpperArm_R
					{
						OFFSET -5.34813 0.0 0.0
						CHANNELS 6 Xposition Yposition Zposition Zrotation Xrotation Yrotation 
						JOINT LowerArm_R
						{
							OFFSET -24.3289 0.000322201 0.0
							CHANNELS 6 Xposition Yposition Zposition Zrotation Xrotation Yrotation 
							JOINT Hand_R
							{
								OFFSET -22.2915 -0.000108084 0.0
								CHANNELS 6 Xposition Yposition Zposition Zrotation Xrotation Yrotation 
								End Site
								{
									OFFSET 0.0 0.0 0.0
								}
							}
						}
					}
				}
			}
		}
		JOINT UpperLeg_L
		{
			OFFSET -2.19248 -6.46944 0.0
			CHANNELS 6 Xposition Yposition Zposition Zrotation Xrotation Yrotation 
			JOINT LowerLeg_L
			{
				OFFSET 39.0811 0.0 -1.23785e-05
				CHANNELS 6 Xposition Yposition Zposition Zrotation Xrotation Yrotation 
				JOINT Foot_L
				{
					OFFSET 40.9854 0.0 -1.26872e-05
					CHANNELS 6 Xposition Yposition Zposition Zrotation Xrotation Yrotation 
					JOINT Toes_L
					{
						OFFSET 11.7543 0.0 0.0
						CHANNELS 6 Xposition Yposition Zposition Zrotation Xrotation Yrotation 
						End Site
						{
							OFFSET 0.0 0.0 0.0
						}
					}
				}
			}
		}
		JOINT UpperLeg_R
		{
			OFFSET -2.19251 6.46944 0.0
			CHANNELS 6 Xposition Yposition Zposition Zrotation Xrotation Yrotation 
			JOINT LowerLeg_R
			{
				OFFSET -39.0811 -0.00228153 -0.0401928
				CHANNELS 6 Xposition Yposition Zposition Zrotation Xrotation Yrotation 
				JOINT Foot_R
				{
					OFFSET -40.9854 0.0 0.0
					CHANNELS 6 Xposition Yposition Zposition Zrotation Xrotation Yrotation 
					JOINT Toes_R
					{
						OFFSET -11.7543 0.0 0.0
						CHANNELS 6 Xposition Yposition Zposition Zrotation Xrotation Yrotation 
						End Site
						{
							OFFSET 0.0 0.0 0.0
						}
					}
				}
			}
		}
	}
}
MOTION
Frames:	4
Frame Time:	0.0333333
0.000000 0.000000 0.000000 0.000000 0.000000 -0.000000 -0.559704 92.101500 -1.196410 87.841600 -1.917310 4.128030 15.735700 0.000005 -0.000001 82.088600 87.174400 -81.654700 8.984550 -0.406207 -0.000000 -2.165430 -0.815225 0.852191 16.377300 -0.000001 -0.000001 -3.829580 -2.157340 0.594084 6.456720 -0.000001 -0.000000 -4.878290 -2.899320 1.425280 12.994200 -0.242716 4.980390 -84.379500 -10.984300 -62.684200 5.348090 -0.000007 -0.000001 -55.632000 -54.178700 -59.892100 24.328600 0.000019 0.000005 -0.833219 -1.459430 -29.729000 22.291600 -0.000001 0.000005 18.066700 5.527420 -7.681970 12.994500 -0.242716 -4.980390 92.462700 -4.920780 -63.370500 -5.348130 -0.000001 -0.000004 -56.421200 -52.179400 -75.594100 -24.328900 0.000322 -0.000009 -2.212560 -5.809720 -20.881800 -22.291500 -0.000108 -0.000004 17.674400 5.407630 -3.187500 -2.192480 -6.469440 -0.000000 -169.054000 -17.541400 -2.253120 39.081100 -0.000007 -0.000012 -0.173492 0.429303 22.005100 40.985400 -0.000006 -0.000013 -7.087740 -3.424890 -63.393000 11.754300 -0.000000 0.000003 -0.000109 -0.001103 -16.619800 -2.192510 6.469440 -0.000001 174.100000 21.538500 179.401000 -39.081100 -0.002282 -0.040193 0.018135 -0.040514 20.084700 -40.985400 0.000008 0.000006 -1.838550 0.602010 -63.059100 -11.754300 -0.000006 -0.000006 -0.004440 -0.055939 -18.848800
0.000000 0.000000 0.000000 0.000000 0.000000 -0.000000 -0.571141 92.086500 -1.164720 87.830200 -1.886670 4.286110 15.735700 0.000005 -0.000001 82.204100 87.221800 -81.797700 8.984550 -0.406207 -0.000000 -2.258250 -0.789009 0.797217 16.377300 -0.000001 -0.000001 -3.636520 -2.210230 0.590009 6.456720 -0.000001 -0.000000 -4.898690 -2.974490 1.464760 12.994200 -0.242716 4.980390 -84.373900 -10.964500 -62.619100 5.348090 -0.000007 -0.000001 -56.389000 -53.539500 -64.327800 24.328600 0.000019 0.000005 -1.073680 -1.809130 -30.695400 22.291600 -0.000001 0.000005 18.229900 5.535090 -8.021000 12.994500 -0.242716 -4.980390 92.560400 -5.130020 -63.430400 -5.348130 -0.000001 -0.000004 -57.123900 -51.760200 -79.170200 -24.328900 0.000322 -0.000009 -2.301030 -5.712430 -21.974700 -22.291500 -0.000108 -0.000004 17.394400 5.414490 -3.414530 -2.192480 -6.469440 -0.000000 -168.973000 -17.496300 -2.111770 39.081100 -0.000007 -0.000012 -0.175958 0.433568 22.089400 40.985400 -0.000006 -0.000013 -7.105310 -3.390060 -63.451900 11.754300 -0.000000 0.000003 -0.000112 -0.001131 -16.620800 -2.192510 6.469440 -0.000001 174.049000 21.502600 179.554000 -39.081100 -0.002282 -0.040193 0.018877 -0.042325 20.180000 -40.985400 0.000008 0.000006 -1.802280 0.573883 -63.140300 -11.754300 -0.000006 -0.000006 -0.004418 -0.055724 -18.840000
0.000000 0.000000 0.000000 0.000000 0.000000 -0.000000 -0.573733 92.082000 -1.161860 87.837900 -1.862440 4.392610 15.735700 0.000005 -0.000001 82.240500 87.257300 -81.854400 8.984550 -0.406207 -0.000000 -2.328230 -0.774381 0.756449 16.377300 -0.000001 -0.000001 -3.476210 -2.275090 0.624512 6.456720 -0.000001 -0.000000 -4.925380 -3.004990 1.438050 12.994200 -0.242716 4.980390 -84.331700 -11.017600 -62.554800 5.348090 -0.000007 -0.000001 -57.146600 -52.945000 -68.908100 24.328600 0.000019 0.000005 -1.250370 -2.003900 -31.972200 22.291600 -0.000001 0.000005 18.086400 5.539400 -8.215380 12.994500 -0.242716 -4.980390 92.656300 -5.351170 -63.550600 -5.348130 -0.000001 -0.000004 -58.303800 -51.355600 -83.438100 -24.328900 0.000322 -0.000009 -2.292200 -5.387900 -23.078900 -22.291500 -0.000108 -0.000004 17.152300 5.420000 -3.599250 -2.192480 -6.469440 -0.000000 -168.964000 -17.451700 -2.033060 39.081100 -0.000007 -0.000012 -0.174266 0.428518 22.130400 40.985400 -0.000006 -0.000013 -7.098480 -3.402730 -63.470700 11.754300 -0.000000 0.000003 -0.000104 -0.001066 -16.618400 -2.192510 6.469440 -0.000001 174.008000 21.521800 179.649000 -39.081100 -0.002282 -0.040193 0.021710 -0.049857 20.245300 -40.985400 0.000008 0.000006 -1.701280 0.550930 -63.189700 -11.754300 -0.000006 -0.000006 -0.004356 -0.055093 -18.814300
0.000000 0.000000 0.000000 0.000000 0.000000 -0.000000 -0.577776 92.080700 -1.193840 87.810100 -1.804840 4.453590 15.735700 0.000005 -0.000001 82.063200 87.259000 -81.683000 8.984550 -0.406207 -0.000000 -2.333930 -0.790231 0.744453 16.377300 -0.000001 -0.000001 -3.437590 -2.310310 0.647872 6.456720 -0.000001 -0.000000 -4.954050 -2.999280 1.459240 12.994200 -0.242716 4.980390 -84.308600 -11.026500 -62.477100 5.348090 -0.000007 -0.000001 -57.083300 -52.396400 -73.376500 24.328600 0.000019 0.000005 -1.443000 -2.225100 -32.976700 22.291600 -0.000001 0.000005 17.920100 5.543240 -8.391200 12.994500 -0.242716 -4.980390 92.770000 -5.613630 -63.682400 -5.348130 -0.000001 -0.000004 -60.463100 -50.845600 -88.727500 -24.328900 0.000322 -0.000009 -2.032110 -4.538480 -24.141300 -22.291500 -0.000108 -0.000004 17.021400 5.425580 -3.788090 -2.192480 -6.469440 -0.000000 -168.923000 -17.374400 -2.019840 39.081100 -0.000007 -0.000012 -0.175012 0.429584 22.166200 40.985400 -0.000006 -0.000013 -7.097460 -3.385310 -63.468200 11.754300 -0.000000 0.000003 -0.000108 -0.001096 -16.619500 -2.192510 6.469440 -0.000001 174.026000 21.622800 179.673000 -39.081100 -0.002282 -0.040193 0.023534 -0.054681 20.287700 -40.985400 0.000008 0.000006 -1.587960 0.568056 -63.192000 -11.754300 -0.000006 -0.000006 -0.004416 -0.055697 -18.839000
